<svg id="Group_25" data-name="Group 25" xmlns="http://www.w3.org/2000/svg" xmlns:xlink="http://www.w3.org/1999/xlink" width="257.928" height="213.285" viewBox="0 0 257.928 213.285">
  <defs>
    <clipPath id="clip-path">
      <rect id="Rectangle_67" data-name="Rectangle 67" width="257.928" height="213.285"/>
    </clipPath>
  </defs>
  <g id="Group_24" data-name="Group 24" clip-path="url(#clip-path)">
    <path id="Path_29" data-name="Path 29" d="M224.465,297.441a8.46,8.46,0,0,0-1.959-1.618,15.023,15.023,0,0,0-4.472-1.816,26.013,26.013,0,0,0-5.723-.692,29.488,29.488,0,0,0-3.989.146c-1.178.156-2.372.214-3.542.41a82.846,82.846,0,0,0-9.588,2.26c-6.149,1.8-12.179,3.954-18.211,6.1-2.509.894-5.014,1.8-7.528,2.677-1.1.382-2.2.744-3.331,1.016a2.387,2.387,0,0,1-1.334-.048c-.62-.2-1.248-.372-1.87-.568-4.055-1.272-8.114-2.528-12.208-3.668a121.715,121.715,0,0,0-15.271-3.285q-3.118-.45-6.255-.59a44.57,44.57,0,0,0-8.313.268,30.175,30.175,0,0,0-6.663,1.654,24.78,24.78,0,0,0-3.938,2,6.87,6.87,0,0,0-2.213,2.081,3.087,3.087,0,0,0,.235,3.923,4.71,4.71,0,0,0,4.748,1.585,4.125,4.125,0,0,0,1.843-.831,2.46,2.46,0,0,0,.784-.988,1.791,1.791,0,0,0-.581-2.27,3.841,3.841,0,0,0-1.4-.594,1.07,1.07,0,0,0-.885.2.651.651,0,0,0-.123.971,2.6,2.6,0,0,0,.462.369.636.636,0,0,1,.243.751,1.379,1.379,0,0,1-1.224,1.028,4.044,4.044,0,0,1-1.016.016,1.171,1.171,0,0,1-1.1-1.191,2.367,2.367,0,0,1,.252-1.066,6.046,6.046,0,0,1,1.2-1.744,12.662,12.662,0,0,1,3.2-2.37,18.155,18.155,0,0,1,4.129-1.547,28.884,28.884,0,0,1,8.076-.852c.264,0,.519.005.773,0a37.284,37.284,0,0,1,5.339.311c1.012.121,2.025.235,3.032.383,1.233.18,2.464.37,3.689.6,3.288.607,6.535,1.4,9.759,2.285,4.073,1.114,8.09,2.408,12.072,3.813a3.373,3.373,0,0,1,.464.206.233.233,0,0,1,.015.412,4.863,4.863,0,0,1-.627.254c-2.728.871-5.513,1.528-8.286,2.234a3,3,0,0,1-1.905-.141,56.508,56.508,0,0,0-5.487-1.8,33.283,33.283,0,0,0-6.093-1.105,27.082,27.082,0,0,0-4.333-.016,8.191,8.191,0,0,0-3.02.8,3.862,3.862,0,0,0-1.047.717,1.6,1.6,0,0,0-.111,2.354,3.945,3.945,0,0,0,1.578,1.122,15.275,15.275,0,0,0,5.368,1.17,40.293,40.293,0,0,0,6.28-.168c1.179-.151,2.363-.273,3.537-.455,1.286-.2,2.562-.462,3.846-.681a3.729,3.729,0,0,1,2.327.253c.484.236.98.446,1.46.689,3.163,1.6,6.371,3.1,9.607,4.539a46.256,46.256,0,0,0,10.009,3.22,32.451,32.451,0,0,0,4.279.648c.988.059,1.97.252,2.958.28a53.389,53.389,0,0,0,9.494-.443,30.942,30.942,0,0,0,7.756-2.145,17.309,17.309,0,0,0,6.657-4.737,2.239,2.239,0,0,1,1.518-.828q1.305-.169,2.605-.374a44.975,44.975,0,0,0,6.53-1.524,20.912,20.912,0,0,0,5.477-2.685,8.975,8.975,0,0,0,2.817-3.024,6.419,6.419,0,0,0-.768-7.871M149.6,310.287a2,2,0,0,1-.474.173c-1.65.249-3.3.5-4.952.725a27.538,27.538,0,0,1-4.812.326,20.159,20.159,0,0,1-5.233-.507,6.842,6.842,0,0,1-1.747-.644.71.71,0,0,1-.2-1.244,2.83,2.83,0,0,1,.9-.63,8.838,8.838,0,0,1,3.1-.83,24.147,24.147,0,0,1,4.74.144,36.152,36.152,0,0,1,7.756,1.79,3.1,3.1,0,0,1,.926.411c.091.068.1.245,0,.286m53.905,3.627c-.158.162-.318.324-.49.47a12.262,12.262,0,0,1-2.1,1.441,26.944,26.944,0,0,1-6.975,2.631,48.97,48.97,0,0,1-5.614.9c-1.664.174-3.332.25-4.735.317-1.116-.01-1.964-.032-2.812-.123-.872-.093-1.75-.092-2.625-.2a43.716,43.716,0,0,1-8.848-2.012,93.005,93.005,0,0,1-10.5-4.385q-1.494-.718-2.979-1.456a5.22,5.22,0,0,1-.58-.347.221.221,0,0,1,.02-.359,4.767,4.767,0,0,1,.642-.219c2.643-.639,5.262-1.369,7.863-2.165.081-.025.164-.043.245-.069a5.79,5.79,0,0,1,3.75.038c2.441.834,4.943,1.455,7.454,2.042,2.7.632,5.42,1.193,8.157,1.653,1.339.226,2.679.457,4.027.628s2.708.236,4.054.409c1.3.168,2.6.113,3.9.275a8.408,8.408,0,0,0,1.019.04q3.1,0,6.207,0c.255,0,.51,0,.765.012.108.006.23.031.265.168a.318.318,0,0,1-.1.3m20.593-10.46a7.359,7.359,0,0,1-1.556,1.9,11.4,11.4,0,0,1-2.214,1.571,23.763,23.763,0,0,1-6.266,2.35c-1.6.362-3.219.653-4.835.944-.808.145-1.049-.01-.944-.842a6.124,6.124,0,0,0-.648-3.548,5.225,5.225,0,0,0-3.3-2.865,2.28,2.28,0,0,0-3.008,2.2,2.34,2.34,0,0,0,1.26,2.167,1.14,1.14,0,0,0,.483.133.576.576,0,0,0,.582-.8,1.915,1.915,0,0,0-.156-.3.72.72,0,0,1,.3-1.025,1.417,1.417,0,0,1,1.457-.071,2.074,2.074,0,0,1,.913.864,3.445,3.445,0,0,1,.515,1.862,5.761,5.761,0,0,1-.436,2.068.856.856,0,0,1-.843.591c-.765.013-1.527.085-2.29.133-1.526.1-3.056.133-4.664.2-1.76-.128-3.6-.093-5.442-.191-1.723-.092-3.448-.191-5.163-.428-1.093-.151-2.2-.2-3.294-.345-1.572-.206-3.138-.455-4.706-.687-2.635-.391-5.236-.961-7.831-1.555-.634-.145-1.26-.329-1.888-.5a2.074,2.074,0,0,1-.385-.163.188.188,0,0,1-.025-.289,1.712,1.712,0,0,1,.687-.321c1.151-.4,2.306-.785,3.46-1.176q7.928-2.686,15.857-5.369c3.625-1.224,7.29-2.313,11-3.235a59.109,59.109,0,0,1,6.76-1.259c.954-.121,1.919-.151,2.879-.223.622-.046,1.242-.121,1.864-.132a28.848,28.848,0,0,1,5.914.523,12.687,12.687,0,0,1,3.668,1.313,6.711,6.711,0,0,1,1.635,1.208,4.212,4.212,0,0,1,.664,5.308" transform="translate(-39.504 -107.821)"/>
    <path id="Path_30" data-name="Path 30" d="M250.736,280.742v-7.717h-2.767v-1.033h6.658v1.033h-2.779v7.717Z" transform="translate(-91.153 -99.984)"/>
    <path id="Path_31" data-name="Path 31" d="M260.985,280.742v-8.75H262.1v3.593h4.366v-3.593h1.112v8.75h-1.112v-4.124H262.1v4.124Z" transform="translate(-95.938 -99.984)"/>
    <path id="Path_32" data-name="Path 32" d="M275,280.742v-8.75h6.074v1.033H276.11V275.7h4.647v1.026H276.11v2.979h5.157v1.033Z" transform="translate(-101.089 -99.984)"/>
    <path id="Path_33" data-name="Path 33" d="M286.51,280.743l3.226-8.75h1.2l3.438,8.75h-1.266l-.98-2.65h-3.512l-.923,2.65Zm2.424-3.594h2.848l-.877-2.423q-.4-1.1-.6-1.815a11.568,11.568,0,0,1-.453,1.671Z" transform="translate(-105.321 -99.985)"/>
    <path id="Path_34" data-name="Path 34" d="M301.37,280.742v-7.717H298.6v-1.033h6.658v1.033h-2.779v7.717Z" transform="translate(-109.766 -99.984)"/>
    <path id="Path_35" data-name="Path 35" d="M311.592,280.742v-8.749h3.725a4.77,4.77,0,0,1,1.707.236,1.886,1.886,0,0,1,.933.832,2.558,2.558,0,0,1,.35,1.319,2.25,2.25,0,0,1-.579,1.569,2.875,2.875,0,0,1-1.788.813,2.852,2.852,0,0,1,.67.435,5.989,5.989,0,0,1,.923,1.164l1.461,2.381h-1.4l-1.112-1.82q-.488-.787-.8-1.206a2.551,2.551,0,0,0-.564-.584,1.653,1.653,0,0,0-.507-.233,3.21,3.21,0,0,0-.618-.042H312.7v3.885Zm1.112-4.888h2.389a3.453,3.453,0,0,0,1.192-.164,1.28,1.28,0,0,0,.653-.525,1.468,1.468,0,0,0,.223-.785,1.329,1.329,0,0,0-.433-1.021,1.967,1.967,0,0,0-1.367-.4H312.7Z" transform="translate(-114.541 -99.985)"/>
    <path id="Path_36" data-name="Path 36" d="M325.632,280.742v-8.75h6.074v1.033h-4.962V275.7h4.647v1.026h-4.647v2.979H331.9v1.033Z" transform="translate(-119.703 -99.984)"/>
    <path id="Path_37" data-name="Path 37" d="M72.4,280.742v-8.75h6.074v1.033H73.511V275.7h4.647v1.026H73.511v2.979h5.157v1.033Z" transform="translate(-26.614 -99.984)"/>
    <path id="Path_38" data-name="Path 38" d="M84.02,280.742l3.249-4.56-2.865-4.19h1.324l1.524,2.244q.475.7.676,1.074a11.5,11.5,0,0,1,.665-1l1.69-2.322h1.209l-2.951,4.125,3.18,4.625H90.346l-2.115-3.122q-.177-.267-.366-.584c-.188.319-.321.537-.4.656l-2.108,3.05Z" transform="translate(-30.886 -99.984)"/>
    <path id="Path_39" data-name="Path 39" d="M100.148,280.742v-7.717H97.381v-1.033h6.658v1.033H101.26v7.717Z" transform="translate(-35.797 -99.984)"/>
    <path id="Path_40" data-name="Path 40" d="M110.37,280.742v-8.749h3.725a4.77,4.77,0,0,1,1.707.236,1.887,1.887,0,0,1,.933.832,2.558,2.558,0,0,1,.35,1.319,2.25,2.25,0,0,1-.579,1.569,2.875,2.875,0,0,1-1.788.813,2.851,2.851,0,0,1,.67.435,5.989,5.989,0,0,1,.923,1.164l1.461,2.381h-1.4l-1.112-1.82q-.488-.787-.8-1.206a2.553,2.553,0,0,0-.564-.584,1.653,1.653,0,0,0-.507-.233,3.21,3.21,0,0,0-.618-.042h-1.289v3.885Zm1.112-4.888h2.389a3.453,3.453,0,0,0,1.192-.164,1.28,1.28,0,0,0,.653-.525,1.468,1.468,0,0,0,.223-.785,1.329,1.329,0,0,0-.433-1.021,1.967,1.967,0,0,0-1.367-.4h-2.659Z" transform="translate(-40.572 -99.985)"/>
    <path id="Path_41" data-name="Path 41" d="M122.916,280.743l3.226-8.75h1.2l3.438,8.75h-1.266l-.98-2.65h-3.512l-.923,2.65Zm2.424-3.594h2.848l-.877-2.423q-.4-1.1-.6-1.815a11.566,11.566,0,0,1-.453,1.671Z" transform="translate(-45.184 -99.985)"/>
    <path id="Path_42" data-name="Path 42" d="M136.847,276.391a4.879,4.879,0,0,1,1.123-3.412,3.743,3.743,0,0,1,2.9-1.232,3.9,3.9,0,0,1,2.1.579,3.728,3.728,0,0,1,1.424,1.615,5.422,5.422,0,0,1,.49,2.349,5.328,5.328,0,0,1-.516,2.381,3.607,3.607,0,0,1-1.461,1.591,4.047,4.047,0,0,1-2.04.54,3.847,3.847,0,0,1-2.12-.6,3.791,3.791,0,0,1-1.415-1.629,5.114,5.114,0,0,1-.481-2.184m1.147.018a3.593,3.593,0,0,0,.816,2.491,2.771,2.771,0,0,0,4.114-.008,3.819,3.819,0,0,0,.811-2.608,4.65,4.65,0,0,0-.347-1.866,2.751,2.751,0,0,0-1.014-1.236,2.671,2.671,0,0,0-1.5-.438,2.782,2.782,0,0,0-2.032.844,3.874,3.874,0,0,0-.85,2.821" transform="translate(-50.305 -99.894)"/>
    <path id="Path_43" data-name="Path 43" d="M152.473,280.742v-8.749H156.2a4.77,4.77,0,0,1,1.707.236,1.886,1.886,0,0,1,.933.832,2.558,2.558,0,0,1,.35,1.319,2.25,2.25,0,0,1-.579,1.569,2.875,2.875,0,0,1-1.788.813,2.851,2.851,0,0,1,.67.435,5.988,5.988,0,0,1,.923,1.164l1.461,2.381h-1.4l-1.112-1.82q-.488-.787-.8-1.206a2.552,2.552,0,0,0-.564-.584,1.653,1.653,0,0,0-.507-.233,3.21,3.21,0,0,0-.618-.042h-1.289v3.885Zm1.112-4.888h2.389a3.453,3.453,0,0,0,1.192-.164,1.28,1.28,0,0,0,.653-.525,1.468,1.468,0,0,0,.223-.785,1.329,1.329,0,0,0-.433-1.021,1.967,1.967,0,0,0-1.367-.4h-2.659Z" transform="translate(-56.049 -99.985)"/>
    <path id="Path_44" data-name="Path 44" d="M166.477,280.742v-8.75h2.894a6.754,6.754,0,0,1,1.5.125,2.807,2.807,0,0,1,1.232.627,3.575,3.575,0,0,1,.994,1.5,6.091,6.091,0,0,1,.329,2.08,6.339,6.339,0,0,1-.224,1.766,4.357,4.357,0,0,1-.573,1.274,3.107,3.107,0,0,1-.765.794,3.04,3.04,0,0,1-1,.438,5.449,5.449,0,0,1-1.35.15Zm1.112-1.033h1.793a4.184,4.184,0,0,0,1.3-.161,1.851,1.851,0,0,0,.754-.453,2.793,2.793,0,0,0,.616-1.107,5.634,5.634,0,0,0,.221-1.686,4.223,4.223,0,0,0-.433-2.11,2.214,2.214,0,0,0-1.052-.987,4.163,4.163,0,0,0-1.438-.179h-1.765Z" transform="translate(-61.197 -99.984)"/>
    <rect id="Rectangle_66" data-name="Rectangle 66" width="1.112" height="8.75" transform="translate(114.343 172.008)"/>
    <path id="Path_45" data-name="Path 45" d="M186.277,280.742v-8.75h1.14l4.412,6.87v-6.87h1.066v8.75h-1.14l-4.412-6.875v6.875Z" transform="translate(-68.475 -99.984)"/>
    <path id="Path_46" data-name="Path 46" d="M198.867,280.743l3.226-8.75h1.2l3.438,8.75h-1.266l-.98-2.65H200.97l-.923,2.65Zm2.424-3.594h2.848l-.876-2.423q-.4-1.1-.6-1.815a11.562,11.562,0,0,1-.453,1.671Z" transform="translate(-73.104 -99.985)"/>
    <path id="Path_47" data-name="Path 47" d="M213.361,280.742v-8.749h3.725a4.77,4.77,0,0,1,1.707.236,1.886,1.886,0,0,1,.933.832,2.558,2.558,0,0,1,.35,1.319,2.25,2.25,0,0,1-.579,1.569,2.875,2.875,0,0,1-1.788.813,2.853,2.853,0,0,1,.67.435,5.99,5.99,0,0,1,.923,1.164l1.461,2.381h-1.4l-1.112-1.82q-.488-.787-.8-1.206a2.553,2.553,0,0,0-.564-.584,1.653,1.653,0,0,0-.507-.233,3.21,3.21,0,0,0-.618-.042h-1.289v3.885Zm1.112-4.888h2.389a3.453,3.453,0,0,0,1.192-.164,1.28,1.28,0,0,0,.653-.525,1.468,1.468,0,0,0,.223-.785,1.329,1.329,0,0,0-.433-1.021,1.967,1.967,0,0,0-1.367-.4h-2.659Z" transform="translate(-78.432 -99.985)"/>
    <path id="Path_48" data-name="Path 48" d="M228.89,280.742v-3.706l-3.237-5.043h1.352l1.656,2.638q.459.74.854,1.48.378-.686.916-1.546l1.627-2.572h1.3L230,277.035v3.706Z" transform="translate(-82.95 -99.984)"/>
    <path id="Path_49" data-name="Path 49" d="M348.633,277.759a1.923,1.923,0,1,1-1.922-1.993,1.958,1.958,0,0,1,1.922,1.993" transform="translate(-126.745 -101.372)"/>
    <path id="Path_50" data-name="Path 50" d="M61.4,277.725a1.923,1.923,0,1,1-1.922-1.993,1.958,1.958,0,0,1,1.922,1.993" transform="translate(-21.157 -101.359)"/>
    <path id="Path_51" data-name="Path 51" d="M329.725,210.681l15.845.022-.093-38.642s7.56,13.623,12.084,20.6S369.8,210.768,369.8,210.768l9.255-.033-.737-60.8-15.649-6.956.219,32.827L338.822,134.26l-9.3-2.883Z" transform="translate(-121.131 -48.294)"/>
    <path id="Path_52" data-name="Path 52" d="M173,158.811c-.027,6.139-.481,45.385-.481,45.385l41.891-.218.175-12.144L188.59,191.7l.284-26.078,17.789.2.2-15.431-17.888-.2.1-23.774s8.913.022,12.3.153,13.618.535,13.618.535l-.1-12.678s-11.215-.765-21-.863-19.766.5-20.76.687c0,0,.067,36.327-.131,44.556" transform="translate(-63.417 -41.744)"/>
    <path id="Path_53" data-name="Path 53" d="M134.855,136.3c-.084-12.979-11.113-18.126-22.705-16.127-8.31,1.453-25.434,5.613-25.434,5.613l-.284,80.647s18.729.175,27.674-.131a37.879,37.879,0,0,0,5.95-.926c9.218-2.082,14.767-9.416,14.423-18.84.142-16.744.452-33.49.376-50.237M119.219,147.3c-.182,13.569-.154,27.139-.434,40.707-.058,2.493-1.047,5.2-3.684,5.893-3.7,1-12.754.729-12.754.729l.386-60.86s6.486-1.037,9.231-1.431c3.638-.514,6.691.679,7.132,4.687a102.52,102.52,0,0,1,.123,10.275" transform="translate(-31.772 -44.021)"/>
    <path id="Path_54" data-name="Path 54" d="M292.31,139.5a19.582,19.582,0,0,0-3.32-8.751,24.27,24.27,0,0,0-7.154-6.847,33.8,33.8,0,0,0-9.009-3.992,37.027,37.027,0,0,0-12.713-1.492,18.1,18.1,0,0,0-7.634,2.2,12.356,12.356,0,0,0-1.418.941,14.045,14.045,0,0,0-4.58,6.032,18.763,18.763,0,0,0-1.369,6.377c-.091,2.3-.551,53.178-.378,55.334a22.124,22.124,0,0,0,.561,3.61,16.1,16.1,0,0,0,7.674,10.3,26.178,26.178,0,0,0,10.175,3.185c.988.13,1.986.125,2.972.235a37.147,37.147,0,0,0,6.556-.111,29.571,29.571,0,0,0,4.21-.634,23.07,23.07,0,0,0,7.887-3.105,15.967,15.967,0,0,0,7.484-12.46c.155-1.607.2-49.688.056-50.82m-15.478,47.171a16.592,16.592,0,0,1-.255,3.129c-.061.3-.132.609-.217.909a5,5,0,0,1-3.158,3.428,7.873,7.873,0,0,1-1.723.447,17.156,17.156,0,0,1-6.168-.149,7.506,7.506,0,0,1-1.991-.72,4.748,4.748,0,0,1-2.155-2.323,8.34,8.34,0,0,1-.668-2.538,26.052,26.052,0,0,1-.1-3.905c.028-.622.054-1.246.057-1.869.033-6.573.212-37.684.229-45.136a15.977,15.977,0,0,1,.3-3.294,8.391,8.391,0,0,1,.309-1.059,4.125,4.125,0,0,1,3.239-2.813,10.4,10.4,0,0,1,3.548-.1,23.986,23.986,0,0,1,3,.593,10.471,10.471,0,0,1,2.368.929,6.238,6.238,0,0,1,3.12,3.856c.347,1.209.366,40.475.266,50.618" transform="translate(-89.95 -43.502)"/>
    <path id="Path_55" data-name="Path 55" d="M48.231,152.844c.74-26.25-38.011-7.617-45.611,4.567A14.048,14.048,0,0,0,0,165.862q.19,15.892.173,31.789c-.31,18.335,28.448,20.135,40.364,12.907,10.117-5.979,7.13-19.01,7.666-28.879-.042-9.634.051-19.2.025-28.835m-15.754,3.615c-.029,6.547.054,13.094-.133,19.639h-.022c-.121,7.361.25,14.752-.161,22.1a5.3,5.3,0,0,1-3.426,4.575c-5.148,1.6-13.572,1.615-12.945-6.017.143-12.716-.249-25.468.168-38.168.385-3.026,3.061-4.9,5.685-6.007,4.856-2.023,11.465-3.941,10.834,3.88" transform="translate(0 -51.295)"/>
    <path id="Path_56" data-name="Path 56" d="M183.394,64.8l26.547-19.974,23.49-15.955-12.58,43.092Z" transform="translate(-67.416 -10.613)" fill="#d6d3cf"/>
    <path id="Path_57" data-name="Path 57" d="M181.771,34.377,194.482,0l25.641,61.046L182.8,54.187Z" transform="translate(-66.819 0)" fill="#958f8c"/>
    <path id="Path_58" data-name="Path 58" d="M142.468,28.182l17.5,44.257,43.245-3.058Z" transform="translate(-52.371 -10.36)" fill="#c2bdb8"/>
    <path id="Path_59" data-name="Path 59" d="M215.849,94.03c0,2.834-10.311,5.133-23.031,5.133s-23.031-2.3-23.031-5.133S180.1,88.9,192.817,88.9s23.031,2.3,23.031,5.133" transform="translate(-62.413 -32.679)" fill="#fff"/>
    <path id="Path_60" data-name="Path 60" d="M199.747,93.732l14.784,6.305a88.031,88.031,0,0,1-13.048.9c-1.174,0-2.328-.02-3.455-.058l-4.67-6.069Z" transform="translate(-71.078 -34.456)" fill="#5f5b59"/>
    <path id="Path_61" data-name="Path 61" d="M207.63,52.288a1.308,1.308,0,0,0,.535-.126.687.687,0,0,0,.238-.655,1.232,1.232,0,0,0-.767-.8,3.351,3.351,0,0,0-2.086.688,6.647,6.647,0,0,0-2.5.295,1.577,1.577,0,0,0-.784.744l-1.136.157-.281.266-.329.028a16.238,16.238,0,0,1-1.032,1.338c-.164.118-1.267.538-1.5.672a9.3,9.3,0,0,0-.824.661l-.437-.106-.663.183.1-.431-.5-1.463.175-.35-.2-.218.262-.852-.022-.378.356-.07-.028-.479.7.016a4.622,4.622,0,0,0,.534.848.469.469,0,0,0,.713-.119.593.593,0,0,0,.577-.414,1.579,1.579,0,0,0,.5.311l.36-.954.352.111.135-.352a2.269,2.269,0,0,0,.745-1.388,2.976,2.976,0,0,0-.448-1.675,2.827,2.827,0,0,0-.867-.9,1.91,1.91,0,0,0-1.375.07c-.881.254-.925.746-.925.746l-.852.694-.292.006-.012-.4h-.741l-.112.263a12.6,12.6,0,0,0-1.428-.8,5.687,5.687,0,0,0-1.728-.245,3.392,3.392,0,0,0-1.359.36c-.476.24-2.9,2.154-2.9,2.154a2.957,2.957,0,0,0-.787.066,14.529,14.529,0,0,0-4.32,3.382.7.7,0,0,1-.483-.3s-.221.047-.23.088a.8.8,0,0,0,.391.479,2.555,2.555,0,0,0-.77.772,2.685,2.685,0,0,0-.226,1.325c.065.461.7.784.7.784l.074-.1a1.164,1.164,0,0,1-.207-.377,1.341,1.341,0,0,1,.2-.57l.584-.038.672-.29-2.38,8.37.278.175,1.114.268.7.6.532-.532-.09-1.171,1.163-.721c.956,5.05,2.96,13.16,2.96,13.16l.065,1.379.563-.115-.009,1.58.255.333,5.264,0,1.439-.536-.216-.338.286-.23s-.171-.372-.265-.551c0,0-.207-.238-.442-.161a3.758,3.758,0,0,1-1.32-.09,1.473,1.473,0,0,1-.479-.6l-1.057-.715a5.37,5.37,0,0,0,.039-1.267,8.8,8.8,0,0,0-1.087-2.086l-.109-1.42-.437-1.354.284-1.332L189.969,67a13.079,13.079,0,0,0,.311-1.758,5.355,5.355,0,0,0-.376-1.867l-.262-1.332.219-1.4-.109-.459.216-.792a11.411,11.411,0,0,0,1.757-.786,4.579,4.579,0,0,0,1.372-1.163l.934-.661a14.787,14.787,0,0,0,1.1,1.522,1.779,1.779,0,0,0,.749.243l4.18-1.354-.2-1.886.535-.4,1.5-.273-.172-.584a.323.323,0,0,0,.265-.038,1.685,1.685,0,0,0,.351-.436.622.622,0,0,0,.52.389,1.336,1.336,0,0,0,.794-.18s.418.892.61,1.408.586,2.338.586,2.338a11.579,11.579,0,0,0,2.306-.565,8.755,8.755,0,0,0,1.944-1.112,21.025,21.025,0,0,1-1.468-3.567m-17.8,6.1a.06.06,0,0,1-.066-.033c-.024-.044-.071-.576-.071-.576l.341.126Z" transform="translate(-66.543 -17.2)" fill="#0a0a0a"/>
  </g>
</svg>
